#!OML:ASF C:\Vicon Data\Big\jianyuan-12\jianyuan\Session 1\Capture.male.ASF
:FULLY-SPECIFIED
:DEGREES
98
root -9.716128 17.372814 -16.345002 2.263574 -18.168147 6.381266
lowerback -8.723533 0.441098 -2.777821 
upperback 2.740957 0.990670 -0.810171 
thorax 7.766200 0.376420 0.860218 
lowerneck 2.372539 -11.386366 -5.298172 
upperneck -2.771707 -15.067613 12.095435 
head 0.156227 -7.609622 4.829835 
rclavicle 0.000000 0.000000 
rhumerus -23.749948 -18.042574 -87.980893 
rradius 42.600848 
rwrist 24.738659 
rhand -20.420074 -4.645507 
rfingers 0.000000 
rthumb 5.934283 -34.542367 
lclavicle 0.000000 0.000000 
lhumerus -55.306481 41.273156 52.728924 
lradius 24.551073 
lwrist -60.901066 
lhand -5.853962 3.643050 
lfingers 0.000000 
lthumb 19.972713 32.636595 
rfemur -3.567007 3.032985 24.726946 
rtibia 25.165740 
rfoot -27.409308 -0.688979 
rtoes 3.261850 
lfemur -28.871658 -6.322065 -16.157816 
ltibia 18.101696 
lfoot -12.343555 5.232861 
ltoes -33.040773 
99
root -9.739426 17.369507 -16.268941 2.157036 -18.336528 6.362464
lowerback -8.624643 0.454297 -2.828811 
upperback 2.771289 1.004588 -0.726110 
thorax 7.738745 0.378424 0.978486 
lowerneck 2.453382 -11.389312 -5.448284 
upperneck -2.963047 -15.066755 12.102092 
head 0.092293 -7.615482 4.872549 
rclavicle 0.000000 0.000000 
rhumerus -23.734135 -17.792489 -87.862230 
rradius 42.822902 
rwrist 24.638395 
rhand -20.399935 -4.661905 
rfingers 0.000000 
rthumb 5.953688 -34.558260 
lclavicle 0.000000 0.000000 
lhumerus -55.639945 41.478968 52.412403 
lradius 24.499442 
lwrist -61.165024 
lhand -5.770862 3.680273 
lfingers 0.000000 
lthumb 20.052608 32.665524 
rfemur -2.951414 3.068186 24.745356 
rtibia 24.772421 
rfoot -27.327401 -0.588639 
rtoes 3.435756 
lfemur -28.562112 -6.760397 -15.966681 
ltibia 16.692579 
lfoot -12.251927 4.913062 
ltoes -32.812827 
100
root -9.759798 17.365803 -16.190281 2.081874 -18.369402 6.341130
lowerback -8.585672 0.439654 -2.754652 
upperback 2.822583 0.977719 -0.740185 
thorax 7.773470 0.368626 0.917713 
lowerneck 2.496566 -11.411063 -5.460217 
upperneck -3.160596 -15.080567 12.161215 
head 0.027689 -7.628104 4.906238 
rclavicle 0.000000 0.000000 
rhumerus -23.570236 -17.816172 -87.945909 
rradius 42.897628 
rwrist 24.455557 
rhand -20.550339 -4.587706 
rfingers 0.000000 
rthumb 5.808485 -34.488090 
lclavicle 0.000000 0.000000 
lhumerus -55.779203 41.595713 52.088557 
lradius 24.407748 
lwrist -61.425150 
lhand -5.682287 3.626774 
lfingers 0.000000 
lthumb 20.137745 32.603067 
rfemur -2.388721 2.966287 24.751157 
rtibia 24.418473 
rfoot -27.234791 -0.492357 
rtoes 3.464618 
lfemur -28.296197 -7.175801 -15.861831 
ltibia 15.316548 
lfoot -12.064888 4.552859 
ltoes -32.984748 
101
root -9.779900 17.362793 -16.112208 2.062520 -18.508876 6.326782
lowerback -8.587137 0.446760 -2.653813 
upperback 2.840314 0.978822 -0.774705 
thorax 7.795287 0.374741 0.824934 
lowerneck 2.564559 -11.421213 -5.381634 
upperneck -3.358966 -15.076740 12.134325 
head -0.058595 -7.632590 4.897319 
rclavicle 0.000000 0.000000 
rhumerus -23.507296 -17.723589 -88.090515 
rradius 43.092913 
rwrist 24.212059 
rhand -20.515780 -4.951157 
rfingers 0.000000 
rthumb 5.841872 -34.850664 
lclavicle 0.000000 0.000000 
lhumerus -56.018844 41.808683 51.616426 
lradius 24.284007 
lwrist -61.770626 
lhand -5.727199 3.640088 
lfingers 0.000000 
lthumb 20.094627 32.620891 
rfemur -1.901938 2.997977 24.761762 
rtibia 24.069195 
rfoot -27.130892 -0.514251 
rtoes 3.195475 
lfemur -28.120258 -7.578236 -15.732930 
ltibia 14.070579 
lfoot -11.903319 4.297727 
ltoes -33.204323 
102
root -9.802957 17.359679 -16.038782 2.076821 -18.701843 6.382112
lowerback -8.576776 0.481027 -2.459755 
upperback 2.807536 1.018825 -0.989287 
thorax 7.759645 0.411152 0.495565 
lowerneck 2.633652 -11.418257 -5.201771 
upperneck -3.497059 -15.049538 12.228436 
head -0.125021 -7.625093 4.911223 
rclavicle 0.000000 0.000000 
rhumerus -23.492287 -17.782275 -88.353746 
rradius 43.173060 
rwrist 24.306825 
rhand -20.526549 -4.773077 
rfingers 0.000000 
rthumb 5.831481 -34.672775 
lclavicle 0.000000 0.000000 
lhumerus -56.191770 41.897644 50.917912 
lradius 24.166994 
lwrist -62.126487 
lhand -5.697522 3.529578 
lfingers 0.000000 
lthumb 20.123141 32.507430 
rfemur -1.527345 3.039987 24.702346 
rtibia 23.800681 
rfoot -27.047249 -0.500129 
rtoes 2.808447 
lfemur -27.997059 -7.680194 -15.748196 
ltibia 12.909632 
lfoot -11.580686 3.859442 
ltoes -34.303987 
103
root -9.824691 17.358801 -15.964071 2.043316 -18.878269 6.338258
lowerback -8.515339 0.508516 -2.325088 
upperback 2.816232 1.041810 -1.034347 
thorax 7.735577 0.430577 0.375239 
lowerneck 2.687939 -11.409637 -5.174853 
upperneck -3.672627 -15.022478 12.257909 
head -0.194325 -7.617075 4.929961 
rclavicle 0.000000 0.000000 
rhumerus -23.408963 -17.844155 -88.385990 
rradius 43.158654 
rwrist 24.379815 
rhand -20.779280 -4.736778 
rfingers 0.000000 
rthumb 5.587450 -34.643112 
lclavicle 0.000000 0.000000 
lhumerus -56.365727 42.051491 50.472262 
lradius 24.064152 
lwrist -62.498855 
lhand -5.744304 3.611128 
lfingers 0.000000 
lthumb 20.078142 32.593638 
rfemur -1.086906 3.166371 24.752533 
rtibia 23.578985 
rfoot -27.034554 -0.552861 
rtoes 2.468428 
lfemur -27.803148 -7.925038 -15.625328 
ltibia 11.868482 
lfoot -11.438856 3.576163 
ltoes -34.754546 
104
root -9.844753 17.354293 -15.890560 2.049798 -19.031971 6.308790
lowerback -8.567930 0.543025 -2.509530 
upperback 2.865505 1.094654 -0.822274 
thorax 7.810453 0.439472 0.711090 
lowerneck 2.721071 -11.444210 -5.447159 
upperneck -3.981483 -15.056936 12.396394 
head -0.250067 -7.644243 4.811352 
rclavicle 0.000000 0.000000 
rhumerus -23.300723 -17.607272 -88.089527 
rradius 43.208042 
rwrist 23.980995 
rhand -20.916149 -4.884747 
rfingers 0.000000 
rthumb 5.455276 -34.794542 
lclavicle 0.000000 0.000000 
lhumerus -56.659931 42.512678 50.238258 
lradius 23.954248 
lwrist -63.138389 
lhand -5.863294 3.740116 
lfingers 0.000000 
lthumb 19.963755 32.734609 
rfemur -0.710299 3.214650 24.769416 
rtibia 23.377542 
rfoot -26.985839 -0.535029 
rtoes 2.171881 
lfemur -27.707419 -8.028173 -15.624930 
ltibia 11.022470 
lfoot -11.212832 3.244948 
ltoes -35.132042 
105
root -9.865551 17.350407 -15.817114 2.081941 -19.197105 6.319729
lowerback -8.628424 0.559913 -2.557927 
upperback 2.864470 1.120769 -0.774737 
thorax 7.841905 0.447837 0.793111 
lowerneck 2.761651 -11.473911 -5.512266 
upperneck -4.225964 -15.074531 12.606078 
head -0.290989 -7.664506 4.610561 
rclavicle 0.000000 0.000000 
rhumerus -23.324279 -17.486268 -87.993732 
rradius 43.329040 
rwrist 23.921103 
rhand -20.872189 -4.665565 
rfingers 0.000000 
rthumb 5.497721 -34.574245 
lclavicle 0.000000 0.000000 
lhumerus -56.799906 42.697735 50.030519 
lradius 23.893102 
lwrist -63.242194 
lhand -5.719732 3.707719 
lfingers 0.000000 
lthumb 20.101760 32.687792 
rfemur -0.382892 3.255251 24.738772 
rtibia 23.186727 
rfoot -26.898502 -0.462947 
rtoes 2.052203 
lfemur -27.685797 -8.115913 -15.650976 
ltibia 10.348303 
lfoot -11.168188 2.929316 
ltoes -35.160142 
106
root -9.884407 17.345526 -15.743539 2.034271 -19.302519 6.319452
lowerback -8.588620 0.574135 -2.478935 
upperback 2.885339 1.132793 -0.809707 
thorax 7.842892 0.458660 0.713244 
lowerneck 2.808248 -11.515822 -5.431786 
upperneck -4.419785 -15.111383 12.600536 
head -0.358697 -7.689411 4.607444 
rclavicle 0.000000 0.000000 
rhumerus -23.323533 -17.542788 -87.963487 
rradius 43.384442 
rwrist 23.977143 
rhand -20.857935 -4.654962 
rfingers 0.000000 
rthumb 5.511500 -34.563287 
lclavicle 0.000000 0.000000 
lhumerus -56.933092 42.900857 49.654326 
lradius 23.777733 
lwrist -63.593911 
lhand -5.722753 3.644392 
lfingers 0.000000 
lthumb 20.098845 32.624788 
rfemur 0.019903 3.275235 24.724510 
rtibia 23.047558 
rfoot -26.799599 -0.298107 
rtoes 2.510140 
lfemur -27.588977 -8.144799 -15.749605 
ltibia 9.779912 
lfoot -11.109641 2.540811 
ltoes -35.179045 
107
root -9.904344 17.338020 -15.669172 1.972914 -19.370352 6.292170
lowerback -8.528949 0.572981 -2.429153 
upperback 2.921192 1.124051 -0.803315 
thorax 7.847719 0.456519 0.690075 
lowerneck 2.817043 -11.559315 -5.366196 
upperneck -4.509686 -15.171693 12.296322 
head -0.443144 -7.714167 4.845795 
rclavicle 0.000000 0.000000 
rhumerus -23.305620 -17.476469 -87.940969 
rradius 43.435414 
rwrist 23.891176 
rhand -20.958335 -4.783730 
rfingers 0.000000 
rthumb 5.414567 -34.694564 
lclavicle 0.000000 0.000000 
lhumerus -57.207354 43.285072 49.089017 
lradius 23.630327 
lwrist -64.316585 
lhand -5.848066 3.638062 
lfingers 0.000000 
lthumb 19.978366 32.631036 
rfemur 0.439018 3.246707 24.752344 
rtibia 22.947330 
rfoot -26.757673 -0.207001 
rtoes 2.757158 
lfemur -27.493926 -8.144673 -15.853427 
ltibia 9.337182 
lfoot -11.050605 2.217198 
ltoes -35.425470 
